<?xml version="1.0" encoding="UTF-8"?>
<svg id="Layer_2" data-name="Layer 2" xmlns="http://www.w3.org/2000/svg" viewBox="0 0 348.07 347.99">
  <defs>
    <style>
      .cls-1 {
        fill: #fa6418;
      }

      .cls-2 {
        fill: #fff;
      }

      .cls-3 {
        fill: #e32613;
      }

      .cls-4 {
        fill: #17c5ce;
      }
    </style>
  </defs>
  <g id="Layer_1-2" data-name="Layer 1">
    <g>
      <path class="cls-3" d="M305.79,282.06l-85.66-84.51,24.76-22.74,.42,.42,84.78,83.69-24.3,23.14Zm-83.85-84.48l83.87,82.74,22.5-21.42-83.44-82.37-22.92,21.05Z"/>
      <path class="cls-4" d="M114.11,202.43l-.59-.21L0,161.98l11.26-32.54,.59,.21,113.47,40.25-11.22,32.54ZM1.58,161.22l111.76,39.62,10.41-30.18L12.03,131.03,1.58,161.22Z"/>
      <path class="cls-1" d="M204.37,347.99l-33.94-3.7,13.97-121.14,33.95,3.67-13.99,121.17Zm-32.56-4.8l31.46,3.43,13.7-118.69-31.47-3.4-13.69,118.66Z"/>
      <path class="cls-2" d="M190.02,123.67l-29.05-18.12,13.08-20.95L225.3,2.49l29.04,18.11-.33,.53-63.99,102.54Zm-27.33-18.52l26.94,16.8L252.63,21l-26.93-16.79-63.01,100.94Z"/>
      <path class="cls-3" d="M114.44,142.76L74.67,27.63l32.11-11.53,39.77,115.13-32.11,11.54ZM76.25,28.38l38.96,112.78,29.76-10.7L106.01,17.7l-29.76,10.69Z"/>
      <path class="cls-4" d="M222.47,153.46l-3.92-34.17,120.32-13.71,4.02,33.99-120.42,13.89Zm-2.54-33.07l3.64,31.69,117.94-13.6-3.73-31.52-117.85,13.43Z"/>
      <path class="cls-2" d="M57.76,304.46l-18.19-29.05,102.68-64.61,18.22,29.03-.53,.33-102.19,64.3Zm-16.48-28.66l16.87,26.93,100.6-63.3-16.9-26.92-100.58,63.28Z"/>
      <path class="cls-2" d="M50.41,122.16c-.09,0-.19,0-.28,0h0c-6.97-.07-13.49-2.87-18.35-7.87-4.91-5.04-7.55-11.71-7.44-18.77,.11-7.12,3.03-13.78,8.21-18.76,5.03-4.83,11.52-7.42,18.33-7.25,14.32,.34,25.9,12.14,25.83,26.3-.04,7.19-2.84,13.88-7.88,18.84-4.92,4.85-11.45,7.51-18.4,7.51Zm-.27-1.25c6.72,.09,13.05-2.47,17.8-7.15,4.81-4.73,7.47-11.11,7.51-17.96,.07-13.49-10.97-24.72-24.61-25.04-6.45-.17-12.64,2.3-17.43,6.9-4.94,4.74-7.71,11.09-7.82,17.88-.11,6.73,2.41,13.08,7.09,17.88,4.64,4.76,10.84,7.42,17.47,7.49h0Z"/>
      <path class="cls-4" d="M128.88,339.15c-.16,0-.32,0-.48,0-6.83-.11-13.23-2.96-18.01-8.02-4.77-5.05-7.34-11.68-7.22-18.66h0c.13-7.16,3.03-13.83,8.17-18.76,4.99-4.79,11.47-7.35,18.3-7.19,14.7,.34,25.98,12.28,25.68,27.19-.29,14.35-11.86,25.44-26.45,25.44Zm-24.45-26.66c-.11,6.65,2.33,12.97,6.88,17.78,4.55,4.81,10.63,7.52,17.12,7.63,14.09,.19,25.38-10.41,25.66-24.22,.28-14.21-10.46-25.6-24.46-25.92-6.43-.17-12.65,2.28-17.41,6.84-4.9,4.71-7.67,11.06-7.79,17.89h0Z"/>
      <path class="cls-2" d="M256.03,322.98c-14.39,0-26.11-11.78-26.14-26.27h0c-.01-7.15,2.73-13.83,7.72-18.83,4.89-4.89,11.38-7.58,18.28-7.58h.05c14.27,.03,25.96,11.71,26.05,26.06,.05,7.15-2.7,13.88-7.73,18.95-4.9,4.94-11.35,7.66-18.18,7.67h-.05Zm-.14-51.43c-6.57,0-12.75,2.56-17.4,7.21-4.76,4.76-7.37,11.13-7.35,17.94h0c.03,13.81,11.19,25.03,24.9,25.03h.05c6.49-.01,12.63-2.61,17.29-7.3,4.8-4.84,7.42-11.25,7.37-18.06-.08-13.66-11.21-24.79-24.8-24.82h-.05Z"/>
      <path class="cls-1" d="M321.96,213.39c-.08,0-.17,0-.25,0-14.54-.13-25.87-11.79-25.79-26.53,.08-14.59,11.64-26.02,26.33-26.02h.02c6.76,0,13.18,2.74,18.08,7.7,4.98,5.04,7.8,11.95,7.73,18.96-.15,14.57-11.6,25.9-26.11,25.9Zm.29-51.3c-13.99,0-25.01,10.88-25.08,24.78h0c-.08,14.05,10.71,25.16,24.55,25.28,.08,0,.16,0,.24,0,13.82,0,24.72-10.79,24.87-24.66,.07-6.68-2.61-13.27-7.37-18.07-4.67-4.72-10.78-7.32-17.2-7.33h-.02Z"/>
      <path class="cls-4" d="M157.35,52.58c-6.85,0-13.26-2.61-18.07-7.37-4.99-4.94-7.76-11.68-7.79-18.96-.03-7.08,2.66-13.71,7.59-18.67C143.91,2.71,150.33,.02,157.16,0h.1c14.64,0,26.18,11.43,26.29,26.07,.05,6.99-2.67,13.62-7.65,18.67-4.95,5.01-11.48,7.8-18.39,7.84h-.16Zm-.09-51.33h-.09c-6.5,.02-12.61,2.58-17.2,7.21-4.69,4.73-7.26,11.05-7.23,17.79,.03,6.95,2.66,13.37,7.42,18.08,4.57,4.52,10.67,7.01,17.19,7.01h.15c6.58-.04,12.79-2.69,17.51-7.47,4.75-4.81,7.34-11.13,7.29-17.79-.1-13.94-11.09-24.83-25.04-24.83Z"/>
      <path class="cls-3" d="M38.26,249.79c-.09,0-.18,0-.28,0h0c-7.14-.08-13.73-2.87-18.57-7.87-4.84-5-7.46-11.72-7.37-18.93,.08-6.99,2.88-13.51,7.88-18.36,5.03-4.88,11.68-7.47,18.73-7.35,14.45,.28,25.67,11.87,25.55,26.38-.06,7.15-2.86,13.81-7.9,18.75-4.86,4.77-11.26,7.38-18.05,7.38Zm-.26-1.25c6.52,.07,12.76-2.43,17.44-7.03,4.79-4.71,7.47-11.05,7.52-17.87,.11-13.82-10.57-24.86-24.33-25.12-6.68-.13-13.05,2.35-17.84,7-4.76,4.62-7.43,10.83-7.5,17.48-.08,6.88,2.42,13.29,7.02,18.05,4.6,4.76,10.89,7.42,17.69,7.49h0Z"/>
      <path class="cls-3" d="M277.99,93.07h-.16c-6.82-.04-13.31-2.83-18.26-7.85-5.03-5.1-7.77-11.77-7.72-18.79,.11-14.35,11.8-26.05,26.07-26.08h.06c6.87,0,13.35,2.7,18.26,7.6,5.01,5.01,7.77,11.68,7.76,18.8,0,7.09-2.79,13.75-7.84,18.76-4.91,4.88-11.36,7.56-18.16,7.56Zm-.01-51.47h-.05c-13.58,.03-24.72,11.18-24.82,24.84-.05,6.68,2.56,13.04,7.36,17.9,4.72,4.78,10.89,7.44,17.38,7.48h.15c6.48,0,12.61-2.55,17.29-7.2,4.81-4.78,7.47-11.13,7.47-17.88,0-6.78-2.62-13.14-7.39-17.91-4.67-4.67-10.84-7.23-17.38-7.23Z"/>
    </g>
  </g>
</svg>